<svg xmlns="http://www.w3.org/2000/svg" viewBox="0 0 188.95 266.86"><g id="Calque_2" data-name="Calque 2"><g id="Calque_1-2" data-name="Calque 1"><path d="M188.47,0H189M151,68.27a42.62,42.62,0,0,1,14,33.59c0,1.32.09,2,1.73,2.41a7.27,7.27,0,0,1,6.07,6.83,40.59,40.59,0,0,1-.07,9.79,7.47,7.47,0,0,1-7.59,6.61q-19.77.07-39.54,0a7.54,7.54,0,0,1-7.61-7.64c-.06-2.71-.06-5.43,0-8.14.07-3.53,2.1-6.58,5.51-7.23,3.16-.61,2.18-2.71,2.19-4.45a3.46,3.46,0,0,0-3.3-3.74,48.69,48.69,0,0,0-5.27-.1c-4.39,0-8.79,0-13.18,0-1.11,0-1.61.23-1.93,1.46C100.89,102,98.13,104,93.66,104q-19.05,0-38.11,0c-4.11,0-7-2-8-5.85-.43-1.75-1.27-2-2.82-2-14,.06-28,0-41.94.09C.6,96.25,0,95.69,0,93.48q.17-17,0-34c0-2.33.75-2.7,2.82-2.69,14,.08,28,0,42,.08,1.62,0,2.38-.37,2.77-2.06A6.93,6.93,0,0,1,53,49.34c1.7-.39,2.14-1.17,2-2.79a44.14,44.14,0,0,1,.05-5.75,7.43,7.43,0,0,1,6.14-7.26c1.45-.33,1.67-1,1.68-2.29,0-5.83.07-5.83-5.79-5.83-3.28,0-6.55,0-9.83,0a7.76,7.76,0,0,1-7.93-7.85c0-2.64-.06-5.28,0-7.91a7.64,7.64,0,0,1,7.75-7.77q27.57-.06,55.13,0A7.55,7.55,0,0,1,110,9.37c.11,2.8.1,5.6,0,8.39a7.66,7.66,0,0,1-7.87,7.65c-4.55.05-9.11.07-13.66,0-1.54,0-2.24.37-2,2a7.63,7.63,0,0,1,0,1.91c-.25,2.39,0,4,3,4.74,3.33.84,4.77,3.81,5,7.19a52.52,52.52,0,0,1,0,5.75c-.07,1.33.29,2,1.69,2.28A7.28,7.28,0,0,1,102,55.15c.32,1.47,1,1.68,2.26,1.68q9.83,0,19.64.13A36.62,36.62,0,0,1,141,61.6a5.61,5.61,0,0,0,.94.42M94.41,76.51h0c0-5.83-.06-11.66,0-17.49,0-1.71-.56-2.14-2.19-2.13q-17.49.09-35,0c-1.63,0-2.2.38-2.19,2.11q.11,17.49,0,35c0,1.7.53,2.15,2.18,2.14q17.49-.09,35,0c1.9,0,2.25-.68,2.22-2.38C94.36,88,94.41,82.26,94.41,76.51Zm19.81-11.79c-3.35,0-6.71.08-10.06,0-1.55-.06-2,.4-2,2q.12,9.83,0,19.64c0,1.62.52,2,2,2,5.9-.07,11.82-.27,17.71.06,5.46.31,10.9,4,11.55,10a32.23,32.23,0,0,1,.21,4c0,1.2.32,1.69,1.61,1.68q10.18-.08,20.36,0c1.23,0,1.65-.38,1.66-1.64a61,61,0,0,0-.46-7.4c-1.51-12.81-11.65-24.57-24-28.46C126.69,64.59,120.48,64.74,114.22,64.72ZM27.46,88.24c5.91,0,11.81,0,17.71,0,1.29,0,2-.11,2-1.75-.09-6.7-.07-13.4,0-20.1,0-1.41-.5-1.72-1.8-1.71q-17.82.06-35.65,0c-1.45,0-1.91.4-1.9,1.88.07,6.54.09,13.08,0,19.62,0,1.74.59,2.11,2.19,2.09C15.82,88.19,21.64,88.24,27.46,88.24Zm118.12,31.55h13.64c5.9,0,5.81,0,5.87-5.82,0-1.86-.6-2.24-2.33-2.23-10.37.08-20.73,0-31.1,0-6.17,0-6.11,0-6,6.18,0,1.53.57,1.87,2,1.85C133.62,119.75,139.6,119.79,145.58,119.79ZM74.37,48.94h6.45c5.71,0,5.64,0,5.65-5.74,0-1.77-.64-2.08-2.21-2.05-5.17.09-10.35,0-15.52,0-6,0-6,0-5.88,6,0,1.57.6,1.84,2,1.81C68,48.89,71.19,48.94,74.37,48.94ZM55.12,17.61c2.24,0,4.47-.05,6.7,0,1.29,0,1.78-.36,1.38-1.67a7.52,7.52,0,0,1,0-4.48c.42-1.38,0-1.86-1.44-1.82-2.87.09-5.74,0-8.61,0-6.41,0-6.38,0-6,6.4.07,1.11.38,1.57,1.52,1.54C50.81,17.57,53,17.61,55.12,17.61ZM94,9.69c-2.15,0-4.3.06-6.45,0-1.44-.06-1.78.35-1.37,1.77a7.72,7.72,0,0,1,0,4.49c-.52,1.59.2,1.72,1.47,1.7,2.86-.05,5.73,0,8.59,0,6.12,0,6.06,0,6-6.15,0-1.58-.62-1.85-2-1.8C98.18,9.75,96.11,9.69,94,9.69ZM74.88,25.42c-4.15,0-4.15,0-4.15,4.09a9.61,9.61,0,0,1,0,1.42c-.29,1.9.5,2.65,2.37,2.37a9.74,9.74,0,0,1,1.43,0c4.13,0,4.13,0,4.12-4.14C78.64,25.42,78.64,25.42,74.88,25.42ZM74.64,9.7a4,4,0,0,0-3.85,4,3.92,3.92,0,0,0,7.83-.1A4.09,4.09,0,0,0,74.64,9.7Z" style="fill:#2fd7ff"/><path d="M27.67,80.48c-3.27,0-6.54-.06-9.81,0-1.48,0-2.07-.31-2.08-2-.06-6-.13-6,5.89-6,5.26,0,10.52,0,15.79,0,1.4,0,1.92.33,1.94,1.85.11,6.14.17,6.14-6,6.14Z" style="fill:#2fd7ff"/><rect x="134.6" y="132.96" width="7" height="34" rx="2" style="fill:#2fd7ff"/><rect x="149.6" y="132.96" width="7" height="62" rx="2" style="fill:#2fd7ff"/><circle cx="130.12" cy="228.72" r="9.26" style="fill:none;stroke:#2fd7ff;stroke-miterlimit:10;stroke-width:7px"/><circle cx="156.8" cy="257.84" r="5.52" style="fill:none;stroke:#2fd7ff;stroke-miterlimit:10;stroke-width:7px"/></g></g></svg>