<svg xmlns="http://www.w3.org/2000/svg" viewBox="0 0 188.95 242.83"><g id="Calque_2" data-name="Calque 2"><g id="Calque_1-2" data-name="Calque 1"><path d="M188.47,0H189M151,68.27a42.62,42.62,0,0,1,14,33.59c0,1.32.09,2,1.73,2.41a7.27,7.27,0,0,1,6.07,6.83,40.59,40.59,0,0,1-.07,9.79,7.47,7.47,0,0,1-7.59,6.61q-19.77.07-39.54,0A7.66,7.66,0,0,1,118,120q-.09-4.16,0-8.3c.07-3.53,2.1-6.58,5.51-7.23,3.16-.61,2.18-2.71,2.19-4.45a3.46,3.46,0,0,0-3.3-3.74,48.69,48.69,0,0,0-5.27-.1c-4.39,0-8.79,0-13.18,0-1.11,0-1.61.23-1.93,1.46a8.48,8.48,0,0,1-8.2,6.36q-19.12,0-38.26,0c-4.11,0-7-2-8-5.85-.43-1.75-1.27-2-2.82-2-14,.06-28,0-41.94.09C.6,96.25,0,95.69,0,93.48q.17-17,0-34c0-2.33.75-2.7,2.82-2.69,14,.08,28,0,42,.08,1.63,0,2.39-.37,2.78-2.08A7.2,7.2,0,0,1,53,49.34c1.7-.39,2.14-1.17,2-2.79a44.14,44.14,0,0,1,.05-5.75,7.43,7.43,0,0,1,6.14-7.26c1.45-.33,1.67-1,1.68-2.29,0-5.83.07-5.83-5.79-5.83-3.28,0-6.55,0-9.83,0a7.76,7.76,0,0,1-7.93-7.85c0-2.64-.06-5.28,0-7.91a7.64,7.64,0,0,1,7.75-7.77q27.57-.06,55.13,0A7.55,7.55,0,0,1,110,9.37c.11,2.8.1,5.6,0,8.39a7.66,7.66,0,0,1-7.87,7.65c-4.55.05-9.11.07-13.66,0-1.51,0-2.21.35-2,1.88a8.27,8.27,0,0,1,0,1.86c-.28,2.47,0,4.11,3,4.89,3.33.84,4.77,3.81,5,7.19a52.52,52.52,0,0,1,0,5.75c-.07,1.33.29,2,1.69,2.28A7.28,7.28,0,0,1,102,55.15c.32,1.47,1,1.68,2.26,1.68q9.83,0,19.64.13A36.62,36.62,0,0,1,141,61.6a5.61,5.61,0,0,0,.94.42M94.41,76.51h0c0-5.83-.06-11.66,0-17.49,0-1.71-.56-2.14-2.19-2.13q-17.49.09-35,0c-2.21,0-2.48.71-2,4.5a119.56,119.56,0,0,1,0,30.3c-.45,3.6-.24,4.44,2,4.42q17.49-.09,35,0c1.9,0,2.25-.68,2.22-2.38C94.36,88,94.41,82.26,94.41,76.51Zm19.81-11.79c-3.35,0-6.71.08-10.06,0-2-.07-2.2.7-1.89,3.58a72,72,0,0,1,0,16.6c-.34,2.86,0,3.43,1.93,3.4,5.9-.07,11.82-.27,17.71.06,5.46.31,10.9,4,11.55,10a32.23,32.23,0,0,1,.21,4c0,1.59.6,1.94,3.19,1.52a50,50,0,0,1,13.32-.45c5.64.62,7.11,1.34,7.12-1a61,61,0,0,0-.46-7.4c-1.51-12.81-11.65-24.57-24-28.46C126.69,64.59,120.48,64.74,114.22,64.72ZM27.46,88.24c5.91,0,11.81,0,17.71,0,1.64,0,2.39-.19,1.83-3.41A47.1,47.1,0,0,1,46.87,69c.61-3.62.37-4.27-1.5-4.26q-17.82.06-35.65,0c-2,0-2.12.76-1.7,4a62,62,0,0,1-.09,15.93C7.54,87.73,8,88.3,10,88.28,15.82,88.19,21.64,88.24,27.46,88.24Zm118.12,31.55h13.64c5.9,0,5.81,0,5.87-5.82,0-1.86-.6-2.24-2.33-2.23-10.37.08-20.73,0-31.1,0-6.17,0-6.11,0-6,6.18,0,1.53.57,1.87,2,1.85C133.62,119.75,139.6,119.79,145.58,119.79ZM74.37,48.94h6.45c5.71,0,5.64,0,5.65-5.74,0-1.77-.64-2.08-2.21-2.05-5.17.09-10.35,0-15.52,0-6,0-6,0-5.88,6,0,1.57.6,1.84,2,1.81C68,48.89,71.19,48.94,74.37,48.94ZM58.22,17.57c1.2,0,2.4,0,3.6.06S63.6,17.27,63.2,16a7.85,7.85,0,0,1,0-4.53c.39-1.34,0-1.81-1.45-1.77-2.84.08-5.68,0-8.52,0a6,6,0,0,0-6.06,6.51c.08,1,.4,1.46,1.51,1.43C51.85,17.54,55,17.67,58.22,17.57Zm34-7.86c-1.53,0-3.07,0-4.6,0s-1.81.34-1.39,1.77a7.67,7.67,0,0,1,0,4.5c-.5,1.59.22,1.71,1.48,1.69,2.86-.05,5.73,0,8.59,0,6.12,0,6.06,0,6-6.15,0-1.58-.62-1.85-2-1.8C97.57,9.78,94.89,9.64,92.21,9.71ZM74.88,25.42c-4.15,0-4.15,0-4.15,4.09a9.61,9.61,0,0,1,0,1.42c-.29,1.9.5,2.65,2.37,2.37a9.74,9.74,0,0,1,1.43,0c4.13,0,4.13,0,4.12-4.14C78.64,25.42,78.64,25.42,74.88,25.42ZM74.64,9.7a4,4,0,0,0-3.85,4,3.92,3.92,0,0,0,7.83-.1A4.09,4.09,0,0,0,74.64,9.7Z" style="fill:#2fd7ff"/><path d="M27.67,80.48c-3.27,0-6.54-.06-9.81,0-1.48,0-2.07-.31-2.08-2-.06-6-.13-6,5.89-6,5.26,0,10.52,0,15.79,0,1.4,0,1.92.33,1.94,1.85.11,6.14.17,6.14-6,6.14Z" style="fill:#2fd7ff"/><path d="M125.6,128h9a0,0,0,0,1,0,0v22.3a2,2,0,0,1-2,2h-5a2,2,0,0,1-2-2V128A0,0,0,0,1,125.6,128Z" style="fill:#2fd7ff"/><circle cx="129.72" cy="236.9" r="5.92" style="fill:#2fd7ff"/></g></g></svg>