<svg id="Calque_1" data-name="Calque 1" xmlns="http://www.w3.org/2000/svg" viewBox="0 0 490 511.81"><defs><style>.cls-1{fill:#a7d1d6;}.cls-2{fill:#7ca1b0;}.cls-3{fill:#8db9c4;}.cls-4{fill:#c7eefd;}.cls-5{fill:#596b75;}.cls-6{fill:#475b62;}.cls-7{fill:#def5fc;}.cls-8{fill:#52666e;}.cls-9{fill:#678c97;}.cls-10{fill:#fccbbc;}.cls-11{fill:#f9ad92;}.cls-12{fill:#f89675;}.cls-13{fill:#02bff9;}.cls-14{fill:#27a6fd;}.cls-15{fill:#f58157;}</style></defs><path class="cls-1" d="M529.94,1023.87c-.38.64-2.5.48-1,2H475c1.51-1.58-.58-1.37-1-2q.06-55.59.11-111.2c0-13.81,1.33-12.63-12.55-12.67-.49,0-1-.1-1.48-.15,2.55-6.3,1.66-12.59,0-18.88l83.81,0a31.09,31.09,0,0,0-.47,18.82c-1.83,0-3.65.13-5.48.13-8.2,0-8.26.08-8.27,8.39q0,48.83,0,97.65C529.67,1011.93,529.85,1017.9,529.94,1023.87Z" transform="translate(-257.08 -514.1)"/><path class="cls-2" d="M625,543.15c-.29,4.53-2.8,6.18-7.2,6-4.58-.21-9.18,0-13.78,0l-24.16.13-16.44-.14c-4.63,0-9.27-.17-13.9,0-4.25.2-6.61-1.49-7-5.79.32-7.76,1.22-15.53-.52-23.25l2-6h23q0,8,0,15.93c0,7,1,8,8,8.05q24.9.07,49.79.11C624.85,539.84,624.9,541.49,625,543.15Z" transform="translate(-257.08 -514.1)"/><path class="cls-3" d="M624.79,538.19q-24.88-.06-49.79-.11c-7.07,0-8-1-8-8.05q0-8,0-15.93h56l2,6Z" transform="translate(-257.08 -514.1)"/><path class="cls-4" d="M542.5,543.34c.37,4.3,2.73,6,7,5.79,4.63-.21,9.27,0,13.9,0L563.5,578l-3.49.12c-5.87.23-6.88,1.24-7.09,7.08,0,1-.12,2-.18,3l-122.41-.06a15.14,15.14,0,0,0-10.19,3.43c-4.79,4.07-6.27,10.2-4,16.33,2.12,5.79,7.05,9.33,14,9.14,6.79-.18,11.5,2.89,14.88,8.29,4.79,7.63-1,21-13.39,20.84-21.15-.2-42.3.06-63.45-.11-7.07-.06-16,6.16-15.3,14.9S358.64,675,368.08,675q52.71,0,105.43,0c.08.94.17,1.89.25,2.83-4.66.7-7.6,3.25-8.12,8a75.19,75.19,0,0,0,.05,18.36c.75,5.38,3.65,7.78,9.16,7.8q25.89.11,51.77,0c5.48,0,8.92-3.46,9.24-8.93a48.69,48.69,0,0,0-.23-5c.07-3.26.25-6.53.21-9.79-.07-5.31-2.25-9.14-7.81-10.35,0-8.3,0-16.6-.11-24.91-.06-4.15,1.75-6.07,6-6.06q50.82.15,101.63.2c.14,4.88,3,6.61,7.49,6.57,6.32,0,12.63.05,19,.09.12,7,1.19,8.15,8.08,8.15q20.44,0,40.89,0c2,0,4-.25,5.73,1.07q55.29,105.1,10.2,215c-.43,1.06-1,2.06-1.54,3.09l-76.51-.27q6.41-6.61,12.81-13.23c5.13-5.35,8.39-11.58,8.4-19.13,0-33.24.11-66.49,0-99.73,0-8.38-4.16-14.49-12-17.82a19.71,19.71,0,0,0-28,18.11c-.1,27.45-.39,54.9.2,82.34.17,8.28-1.9,14-9.24,17.7-1.32-1.41-1.37-3.33-2-5-2.08-5.53-5.57-9.73-11.11-12-8.63-3.69-16-2.14-23.47,5.25-10.4,10.26-20.63,20.7-31,30.94a44.47,44.47,0,0,0-9.44,12.7l-83.81,0a40.46,40.46,0,0,0-7.69-11q-16.25-16.25-32.5-32.48a21.13,21.13,0,0,0-8.66-5.7c-13.53-5-26.35,3.42-27.24,17.89-7.28-3.63-10.45-8.72-10.2-17.62.75-27.25.3-54.54.26-81.81,0-9.88-4.71-16.51-14-20.15-13.26-4.16-26,4.78-26.15,19-.27,33-.09,65.93-.07,98.9,0,7.91,3.21,14.46,8.77,20,4.23,4.22,8.33,8.57,12.49,12.87l-76.39.24a228.27,228.27,0,0,1-20.41-76q-7-72.81,26.84-137.85A232.51,232.51,0,0,1,318.47,619c15.83,0,31.65.05,47.48,0,8.87,0,16-6.17,15.9-13.94s-7.37-15.72-16-15.18c-5.23.33-10.62,1-15.84-.62,18.64-15.56,39.6-27.18,62.07-36.12a242.9,242.9,0,0,1,97.9-17c3.51,5.1,8.27,7.26,14.52,7C530.51,542.89,536.51,543.26,542.5,543.34ZM513.37,856.29c24.3-6.93,37.35-33.47,26.85-56.38-8-17.37-17.26-34.12-26-51.15-1.81-5.57-4.83-10.57-7.57-15.67-2.49-4.61-7.09-4.49-9.55.3-11.3,22-23,43.86-33.48,66.26-7.47,15.93-4.4,31.45,7.23,44.47C482.25,856.85,496.72,860.91,513.37,856.29ZM595.05,665c-8,0-16,0-23.93,0-9.19,0-15.79,6-15.9,14.38-.11,7.71,7.21,14.52,16,14.57q24.2.13,48.38,0c9,0,15.23-5.94,15.37-14.25.14-8.47-6.24-14.6-15.44-14.69C611.35,665,603.2,665,595.05,665Z" transform="translate(-257.08 -514.1)"/><path class="cls-5" d="M460.09,899.88c.49,0,1,.14,1.48.15,13.88,0,12.55-1.14,12.55,12.67q0,55.6-.11,111.2c-18.16-1.22-35.56-5.91-52.7-11.7a201.06,201.06,0,0,1-25.23-10.47q0-46.2-.05-92.41a18.64,18.64,0,0,1,2-9.15l26-.3h36.06Z" transform="translate(-257.08 -514.1)"/><path class="cls-1" d="M278.68,881.16l76.39-.24c6.67,5.94,12.91,12.32,19,18.89-.83.06-1.65.15-2.48.16-9.17.15-9.18.15-9.18,9.12q0,33.35-.05,66.7c0,1.81,1,4.07-1.38,5.35a244.66,244.66,0,0,1-81.39-97.65C279.21,882.74,279,881.94,278.68,881.16Z" transform="translate(-257.08 -514.1)"/><path class="cls-6" d="M360.94,981.14c2.35-1.28,1.38-3.54,1.38-5.35q.1-33.36.05-66.7c0-9,0-9,9.18-9.12.83,0,1.65-.1,2.48-.16l16,0,8,.38a18.64,18.64,0,0,0-2,9.15q.08,46.2.05,92.41A182.81,182.81,0,0,1,360.94,981.14Z" transform="translate(-257.08 -514.1)"/><path class="cls-7" d="M350.05,589.31c5.22,1.62,10.61,1,15.84.62,8.59-.54,15.84,7.33,16,15.18s-7,13.92-15.9,13.94c-15.83,0-31.65,0-47.48,0C327.9,608,338.14,597.75,350.05,589.31Z" transform="translate(-257.08 -514.1)"/><path class="cls-1" d="M542.5,543.34c-6-.08-12-.45-18-.18-6.25.28-11-1.88-14.52-7-.62-5.88-.32-11.41,5.73-14.68a13.52,13.52,0,0,1,6.75-1.42c6.49,0,13,0,19.48,0C543.72,527.81,542.82,535.58,542.5,543.34Z" transform="translate(-257.08 -514.1)"/><path class="cls-8" d="M529.94,1023.87c-.09-6-.27-11.94-.27-17.91q0-48.83,0-97.65c0-8.31.07-8.36,8.27-8.39,1.83,0,3.65-.09,5.47-.13l16.73,0a151.36,151.36,0,0,0,19,.15h50.59c2,.07,4,.24,6,.18,3.71-.12,5.45,1.38,5.43,5.3-.14,25.6-.16,51.21-.22,76.82-10.31,8.26-21.92,14.37-33.77,20-23.89,11.32-48.85,19.08-75.25,21.78A14.66,14.66,0,0,1,529.94,1023.87Z" transform="translate(-257.08 -514.1)"/><path class="cls-1" d="M640.94,982.2c.06-25.61.08-51.22.22-76.82,0-3.92-1.72-5.42-5.43-5.3-2,.06-4-.11-6-.18,6.07-6.61,12.36-13,19-19l76.51.27c-18.33,41.2-46.29,74.46-83,100.49A6.19,6.19,0,0,1,640.94,982.2Z" transform="translate(-257.08 -514.1)"/><path class="cls-3" d="M683.94,587.22c12.15-.05,24.29-.07,36.43-.16,4.86,0,6.3,2.74,6.28,7q-.09,25.95-.12,51.9c-11.64,0-23.28.07-34.92,0-6.57,0-7.69-1.13-7.7-7.42Q683.9,612.92,683.94,587.22Z" transform="translate(-257.08 -514.1)"/><path class="cls-2" d="M683.94,587.22q0,25.69,0,51.39c0,6.29,1.13,7.4,7.7,7.42,11.64,0,23.28,0,34.92,0,.11,1.79.3,3.58.31,5.36,0,9.32,0,9.31-9.19,10.85-.37.06-.66.6-1,.91-1.73-1.32-3.76-1.07-5.73-1.07q-20.45,0-40.89,0c-6.89,0-8-1.1-8.08-8.15q-.08-29.5-.13-59c.33-6.94,1.23-7.81,8.26-7.79C674.71,587.09,679.33,587.17,683.94,587.22Z" transform="translate(-257.08 -514.1)"/><path class="cls-9" d="M661.83,594.87q.06,29.5.13,59c-6.32,0-12.63-.14-19-.09-4.54,0-7.35-1.69-7.49-6.57q.72-22.66,0-45.34c0-5,3.1-6.51,7.53-6.54,6-.05,12-.18,18-.28A3.16,3.16,0,0,1,661.83,594.87Z" transform="translate(-257.08 -514.1)"/><path class="cls-4" d="M661,595.06c-6,.1-12,.23-18,.28-4.43,0-7.5,1.51-7.53,6.54-5.32.06-10.65,0-16,.23-3.39.15-4.88-1-4.69-4.56.21-4,.12-8,0-12-.14-5.25-2.1-7.22-7.23-7.48-1.33-.07-2.66-.05-4-.07,0-3.76-.13-7.53.15-11.27.2-2.62-1.28-5.58,1.27-7.83A225.1,225.1,0,0,1,661,595.06Z" transform="translate(-257.08 -514.1)"/><path class="cls-9" d="M605.07,558.92c-2.55,2.25-1.07,5.21-1.27,7.83-.28,3.74-.12,7.51-.15,11.27l-23.78-.17q0-14.31,0-28.62L604,549.1C603.9,552.42,602.64,555.87,605.07,558.92Z" transform="translate(-257.08 -514.1)"/><path class="cls-1" d="M624.79,538.19l.15-18.09c6.82,0,13.64-.09,20.45,0,7,.11,12,4.82,12.2,11.21s-5,11.6-12.19,11.73c-6.81.12-13.63.07-20.44.09C624.9,541.49,624.85,539.84,624.79,538.19Z" transform="translate(-257.08 -514.1)"/><path class="cls-10" d="M460.09,899.88H441c-9.89-10-19.75-20.09-29.69-30.07-15.1-15.17-15.15-23.27-.13-38a21.13,21.13,0,0,1,8.66,5.7q16.28,16.22,32.5,32.48a40.46,40.46,0,0,1,7.69,11C461.75,887.29,462.64,893.58,460.09,899.88Z" transform="translate(-257.08 -514.1)"/><path class="cls-11" d="M560.12,899.75l-16.73,0a31.17,31.17,0,0,1,.48-18.82,44.47,44.47,0,0,1,9.44-12.7c10.41-10.24,20.64-20.68,31-30.94,7.47-7.39,14.84-8.94,23.47-5.25-9.5,6.83-16.89,15.91-25.28,23.91-4.09,3.9-7.84,8.16-12,11.93C560.86,876.58,557.39,887.12,560.12,899.75Z" transform="translate(-257.08 -514.1)"/><path class="cls-5" d="M579.82,549.23q0,14.31,0,28.62l-16.37.1-.12-28.86Z" transform="translate(-257.08 -514.1)"/><path class="cls-1" d="M563.5,578l16.38-.1,23.77.17c1.33,0,2.66,0,4,.07,5.13.26,7.09,2.23,7.23,7.48.11,4,.2,8,0,12-.19,3.55,1.3,4.71,4.69,4.56,5.32-.23,10.65-.17,16-.23q.72,22.68,0,45.34-50.82-.08-101.63-.2c-4.22,0-6,1.91-6,6.06.11,8.31.08,16.61.11,24.91-11.14,0-22.29-.06-33.43.09-3.42,0-4.74-1.1-4.68-4.6.17-9.65,0-19.29.08-28.94.07-10.47,4.29-19.27,11-27.06,7.4-8.53,16.92-13.1,27.79-15.27,6.65-.05,13.29-.19,19.94-.11,2.91,0,4.34-.92,4.17-4-.18-3.32-.13-6.64-.19-10,.06-1,.15-2,.18-3,.21-5.84,1.22-6.85,7.09-7.08Z" transform="translate(-257.08 -514.1)"/><path class="cls-7" d="M552.74,588.13c.06,3.33,0,6.65.19,10,.17,3.08-1.26,4-4.17,4-6.65-.08-13.29.06-19.94.11-2.66-.05-5.32,0-8-.16-26.47-1.38-48.58,21.38-47.13,47,.48,8.61-.1,17.29-.2,25.94q-52.71,0-105.43,0c-9.44,0-14.45-5.35-15.19-14.13s8.23-15,15.3-14.9c21.15.17,42.3-.09,63.45.11,12.37.12,18.18-13.21,13.39-20.84-3.38-5.4-8.09-8.47-14.88-8.29-7,.19-11.92-3.35-14-9.14-2.24-6.13-.76-12.26,4-16.33a15.14,15.14,0,0,1,10.19-3.43Z" transform="translate(-257.08 -514.1)"/><path class="cls-12" d="M648.81,880.9c-6.69,6-13,12.39-19,19H588c1.34-1.48,2.6-3,4-4.42q24.79-23.87,49.66-47.67A16.49,16.49,0,0,0,647,835c-.15-26.81.25-53.62-.24-80.42-.19-10.15,3-17.8,11.17-23.54,7.89,3.33,12,9.44,12,17.82.14,33.24.07,66.49,0,99.73,0,7.55-3.27,13.78-8.4,19.13Q655.23,874.3,648.81,880.9Z" transform="translate(-257.08 -514.1)"/><path class="cls-12" d="M398,900.17l-8-.38q-15.07-15.24-30.12-30.5c-6.55-6.68-10-14.49-10-24.12.22-31.58.11-63.17.07-94.75a20.15,20.15,0,0,1,6.23-15.2c1.5-1.47,3.51-2.65,3.76-5.08,9.29,3.64,14,10.27,14,20.15,0,27.27.49,54.56-.26,81.81-.25,8.9,2.92,14,10.2,17.62-.72,6.91,2.53,12.14,7.13,16.8q16.47,16.66,32.93,33.35Z" transform="translate(-257.08 -514.1)"/><path class="cls-13" d="M514.25,748.76c8.71,17,18,33.78,26,51.15,10.5,22.91-2.55,49.45-26.85,56.38a18.56,18.56,0,0,0-1.78-.9c-24.44-8.92-34.43-37.71-22.42-59.12,7.72-13.77,14.28-28.2,21.39-42.32C511.52,752,512.18,749.89,514.25,748.76Z" transform="translate(-257.08 -514.1)"/><path class="cls-14" d="M514.25,748.76c-2.07,1.13-2.73,3.28-3.69,5.19-7.11,14.12-13.67,28.55-21.39,42.32-12,21.41-2,50.2,22.42,59.12a18.56,18.56,0,0,1,1.78.9c-16.65,4.62-31.12.56-42.49-12.17-11.63-13-14.7-28.54-7.23-44.47,10.51-22.4,22.18-44.25,33.48-66.26,2.46-4.79,7.06-4.91,9.55-.3C509.42,738.19,512.44,743.19,514.25,748.76Z" transform="translate(-257.08 -514.1)"/><path class="cls-15" d="M360,730.14c-.25,2.43-2.26,3.61-3.76,5.08a20.15,20.15,0,0,0-6.23,15.2c0,31.58.15,63.17-.07,94.75-.06,9.63,3.41,17.44,10,24.12q15,15.3,30.12,30.5l-16,0c-6-6.57-12.29-12.95-19-18.89-4.16-4.3-8.26-8.65-12.49-12.87-5.56-5.54-8.76-12.09-8.77-20,0-33-.2-65.94.07-98.9C334,734.92,346.77,726,360,730.14Z" transform="translate(-257.08 -514.1)"/><path class="cls-15" d="M657.94,731c-8.16,5.74-11.36,13.39-11.17,23.54.49,26.8.09,53.61.24,80.42a16.49,16.49,0,0,1-5.37,12.85q-24.9,23.76-49.66,47.67c-1.43,1.38-2.69,2.94-4,4.42h-8.79c8.88-9,17.63-18.15,26.67-27,6.94-6.78,14-13.31,15.1-23.77,7.34-3.69,9.41-9.42,9.24-17.7-.59-27.44-.3-54.89-.2-82.34A19.71,19.71,0,0,1,657.94,731Z" transform="translate(-257.08 -514.1)"/><path class="cls-3" d="M473.51,675c.1-8.65.68-17.33.2-25.94-1.45-25.64,20.66-48.4,47.13-47,2.66.14,5.32.11,8,.16C518,604.38,508.43,609,501,617.48c-6.74,7.79-11,16.59-11,27.06-.06,9.65.09,19.29-.08,28.94-.06,3.5,1.26,4.65,4.68,4.6,11.14-.15,22.29-.07,33.43-.09,5.56,1.21,7.74,5,7.81,10.35,0,3.26-.14,6.53-.21,9.79-13.13,0-26.25,0-39.38-.12-5.78,0-8.68-2.55-9.24-7.59-.44-3.9,1.77-8.86-1.17-11.46s-8-.42-12.08-1.12C473.68,676.9,473.59,676,473.51,675Z" transform="translate(-257.08 -514.1)"/><path class="cls-7" d="M595.05,665c8.15,0,16.3-.07,24.44,0,9.2.09,15.58,6.22,15.44,14.69-.14,8.31-6.37,14.21-15.37,14.25q-24.19.13-48.38,0c-8.75,0-16.07-6.86-16-14.57.11-8.34,6.71-14.34,15.9-14.38C579.09,665,587.07,665,595.05,665Z" transform="translate(-257.08 -514.1)"/><path class="cls-10" d="M620.93,849.14c-1,10.46-8.16,17-15.1,23.77-9,8.84-17.79,18-26.67,27a151.21,151.21,0,0,1-19-.15c-2.73-12.63.74-23.17,10.39-31.83,4.19-3.77,7.94-8,12-11.93,8.39-8,15.78-17.08,25.28-23.91,5.54,2.32,9,6.52,11.11,12C619.56,845.81,619.61,847.73,620.93,849.14Z" transform="translate(-257.08 -514.1)"/><path class="cls-2" d="M473.76,677.84c4.08.7,9.1-1.52,12.08,1.12s.73,7.56,1.17,11.46c.56,5,3.46,7.55,9.24,7.59,13.13.09,26.25.09,39.38.12a48.69,48.69,0,0,1,.23,5c-.32,5.47-3.76,8.91-9.24,8.93q-25.89.12-51.77,0c-5.51,0-8.41-2.42-9.16-7.8a75.19,75.19,0,0,1-.05-18.36C466.16,681.09,469.1,678.54,473.76,677.84Z" transform="translate(-257.08 -514.1)"/><path class="cls-11" d="M424,899.87q-16.45-16.68-32.93-33.35c-4.6-4.66-7.85-9.89-7.13-16.8.89-14.47,13.71-22.89,27.24-17.89-15,14.7-15,22.8.13,38,9.94,10,19.8,20,29.69,30.07Z" transform="translate(-257.08 -514.1)"/></svg>